<?xml version="1.0" encoding="UTF-8"?>
<svg xmlns="http://www.w3.org/2000/svg" viewBox="0 0 1210.84 1044.37">
  <defs>
    <style>
      .cls-1 {
        fill: #d41216;
      }

      .cls-2 {
        fill: #4bad33;
      }

      .cls-3 {
        fill: #d51123;
      }

      .cls-4 {
        stroke: #1d1d1b;
        stroke-linecap: round;
        stroke-miterlimit: 10;
      }

      .cls-4, .cls-5 {
        fill: #ededed;
      }

      .cls-6 {
        fill: #1d1d1b;
      }

      .cls-7 {
        fill: #010101;
      }
    </style>
  </defs>
  <g id="Capa_1" data-name="Capa 1">
    <path class="cls-2" d="m1123.6,526.9c.05,39.41-1.99,192.56-110.89,323.5-8.98,10.8-54.42,64.42-132.95,109.7-45.57,26.28-169.95,88.77-331.7,68.97-225.7-27.63-365.59-196.09-404.09-276.25-18.38-38.27-33.38-84.53-33.38-84.53-22.75-70.17-29.44-127.4-30.74-141.39-10.72-115.58,70.52-259.92,163.08-352.61C282.71,134.45,405.5,11.47,601.73,5.03c175.99-5.78,298.1,85.89,331,112.43,186.74,150.69,190.83,375.51,190.87,409.43Z"/>
    <circle class="cls-4" cx="611.48" cy="537.73" r="351.78"/>
    <polygon class="cls-5" points="422.86 90.73 461.47 92.03 472.95 82.12 478.95 60.99 501.38 69.86 545.47 38.81 577.82 42.47 597.38 61.77 606.99 114.99 582.25 146.55 542.6 149.94 518.34 142.9 518.6 168.47 507.64 181.25 491.21 171.01 480.25 142.64 431.73 113.99 422.86 90.73"/>
    <path class="cls-5" d="m46.42,297.08l-26.61,96.26,39.13,108.52,19.96,39.39,27,74.35,12.52,89.22,27.39,78.68,28.17,23.09s28.96,12.49,32.87-29.77,0-129.13,0-129.13l8.5-57.13,50.2-29.74,66.52-3.13,45.39,40.7,22.7,64.96,6.26,88.27-3.13,36.69,22.7,23.74,22.56-12.92,42.4-120.9,52.43-123.65,45.39-71.22,53.22-26.61,50.87,32.87,17.22,68.87,11.74,64.96,16.43,10.96,24.25-34.43,7.06-72,7.83-74.35,28.17-79.04-19.57-90-51.65-65.07-66.52-10.84-35.22,22.96-81.39-5.74-57.91-30.12-110.42-9.78-59.4,33.53-39.13,26.72-86.09-20.35-54,5.74-57.13,24.43-40.7,41.05Z"/>
    <path class="cls-4" d="m787.29,273.34l21.39,102.26-34.96,127.3,17.48,70.43,34.7,118.96,34.43,81.91,31.3,14.09,24.52-14.09-5.74-176.35,39.65-45.91,68.87,16.7,25.6,39.65,10.93,122.09,8.87,33.91,24.52,12s38.09-6.26,48-34.43,19.83-144.52,19.83-144.52l2.61-117.91,41.74-123.13s-37.04-103.83-54.78-102.78-111.13-38.09-111.13-38.09l-95.48,29.22-54.26,20.35-75.65-8.96-22.43,17.31Z"/>
    <polygon class="cls-5" points="560.6 917.5 606.99 922.37 699.9 906.61 729.63 917.5 742.95 889.51 836.08 849.61 861.12 812.03 877.72 792.56 924.51 835.13 944.08 812.03 955.82 836.9 926.86 876.31 894.77 894.14 870.51 906.61 866.22 925.26 843.12 912.21 838.42 876.31 817.69 902.94 817.69 928.14 824.34 945.71 805.55 954.47 793.8 925.26 773.73 917.5 778.26 954.47 766.61 981.86 726.51 977.6 714.77 1001.96 670.16 1007.29 620.69 1004.33 579.38 1011.21 562.95 1001.96 560.6 917.5"/>
    <path class="cls-6" d="m581.76.65c-13.07.63-26.11,1.74-39.1,3.38-19.45,2.46-38.86,5.86-57.95,10.28-73.54,17.06-142.97,52.51-201.33,100.21-20.15,16.47-39.73,34.58-57.2,53.85-11.7,12.9-22,27.15-34.85,38.98-13.73,12.65-26.34,13.59-44.3,17-63.16,11.98-126.42,59.27-142.64,123.46-17.13,67.81,19.29,137.21,50.26,195.31,15.27,28.64,36.51,58.54,42.06,91.06,4.81,28.19,6.64,57.17,12.87,85.3,8.83,39.83,30.11,90.25,69.52,109.23,12.61,5.99,21.83,17.43,29.96,28.42,8.82,11.93,18.7,22.97,29.08,33.6,52.47,53.71,118.06,93.18,188.6,118.26,38.59,13.72,78.62,23.28,119.17,28.89,37.66,5.21,76.19,7.88,114.29,5.77,77.78-4.31,156.99-27.88,223.92-67.98,10.63-6.37,20.35-15.01,31.27-20.7,24.18-12.61,42.66-32.29,61.6-51.43,20.09-20.31,38.91-42.1,55.91-65.06,11.76-15.9,22.61-32.34,33.19-49.03,2.03-3.21,6.12-10.96,10.04-11.37,2.59-.27,5.12.72,7.59,1.55,15.74,5.23,32.67-1.07,45.25-11.36,12.51-10.23,20.26-26.06,24.81-41.25,9.43-31.43,19.03-64.19,19.22-97.59.1-16.56-3.3-32.66-5.11-49.06-1.98-17.91-3.01-35.95-2.5-53.96.39-13.96,1.7-27.9,4.15-41.64,2.47-13.82,7.53-27.02,12.98-39.91,7.84-18.56,17.45-36.55,22.58-56.14,5.03-19.23,7.06-39.43,4.81-59.23-1.14-10.02-3.39-19.93-6.94-29.38-7.54-20.09-22.3-35.46-38.73-48.7-19.42-15.65-39.52-30.92-62-41.94-11.43-5.61-23.17-9.54-35.53-12.42-11.87-2.77-25.04.48-36.45-3.69-14.2-5.18-22.59-22.5-32.1-33.32-7.67-8.72-15.72-17.09-24.13-25.08-14.24-13.53-30.57-26.4-46.29-38.2-9.92-7.45-20.24-14.37-30.91-20.72C827.32,34.65,750.31,10.08,669.78,2.83c-29.24-2.63-58.69-3.6-88.01-2.18Zm72.99,14.58c11.72.87,23.4,2.14,35.01,3.8,100.92,14.45,198.51,61.35,272.93,131.02,14.48,13.55,28.04,28.09,40.46,43.56,1.69,2.1,10,14.93,12.36,14.45-.32.16-2.08.48-3.84.64-21.54,1.96-42.9,6.73-62.94,14.96-10.22,4.19-20.07,9.28-29.34,15.29-4.75,3.08-9.61,6.32-13.89,10.05-3.24,2.83-6.18,7.03-10.95,7.03-14.42,0-28.81-7.61-43.08-9.82-11.55-1.79-23.31-2.22-34.96-1.26s-22.36,4.64-33.73,5.41c-9.88.67-14.47-11.35-19.43-17.82-19.15-24.98-50.99-38.21-82.15-36.69-15.5.75-43.77,5.1-51.66,20.88-1.12,1.92-2.41,1.92-9.3.16-11.67-2.98-24.25-5.13-36.62-5.53-6.59-.22-13.2,0-19.75.68-5.68.59-11.79,2.65-17.48,1.22-7.28-1.83-13.64-6.32-19.52-10.8-2.96-2.26-15.11-9.19-15.62-12.85-.93-6.76,13.75-13.35,15.96-20.26,2.02-6.3-1.66-12.61.15-18.25-.08.24,19.52,7,21.45,7.39,24.05,4.84,49.54-8.65,59.55-30.86,19.65-43.58-16.56-112.05-69.41-95.85-7.56,2.32-15.19,6.68-20.19,12.93-3.55,4.44-7.14,15.16-14.61,13.32-2.21-.54-4.13-1.88-6.16-2.93-8.75-4.5-20.21-3.03-27.54,3.52s-10.08,17.78-6.59,26.98c.15.39-11.63-4.17-12.83-4.67-5.15-2.16-11.26-3.05-16.8-2.4-6.05.71-11.99,3.61-15.56,8.55-9.78,13.53,3.34,28.72,14.66,35.37,9.82,5.77,19.42,11.89,28.79,18.35,5.76,3.97,16.13,7.88,16.13,15.31,0,7.56,3.21,16.73,8.18,22.46,2.09,2.41,2.73,3.53,1.44,2.57-7.36-5.52-17.83-5.48-26.58-6.28-11.07-1.02-21.97-3.03-33.12-3.32-40.17-1.05-78.45,12.84-111.33,35.35-5.9,4.04-11.61,8.33-17.16,12.84-4.83,3.94-11.26,11.08-17.89,11.41-7.37.37-14.12-5.91-20.71-8.42-5.99-2.28-12.56-3.63-18.72-5.38-2.2-.62-25.93-8.7-27.04-6.84,0,0,3.37-5.61,3.37-5.62,18.45-30.75,51.27-55.13,78.51-77.78,21.71-18.05,44.46-35,69.02-48.99C452.92,28.73,555.34,7.82,654.75,15.23Zm-80.22,32.42c8.98,5.45,12.35,9.95,18.45,24.86,4.97,12.35,5.61,15.72,5.61,28.23,0,16.52-2.73,25.02-10.75,33.53-7.86,8.18-15.72,10.91-30,10.43-10.59-.48-12.67-1.28-21.17-6.74-8.02-5.29-10.27-8.02-14.92-17.32-4.65-9.62-5.45-12.67-5.94-26.95-.64-15.24-.32-16.68,4.01-25.99,2.57-5.29,6.58-11.55,8.98-13.8,9.79-9.14,35.13-12.51,45.72-6.26Zm-80.53,27.11c2.25,6.26,5.29,18.93,7.7,31.76,1.12,6.42,2.57,12.35,3.05,13.31.64.8,1.28,3.21,1.6,5.13s1.76,12.03,3.37,22.3c3.05,21.01,2.41,23.74-6.1,23.74-3.85,0-5.13-1.12-7.7-6.9-1.76-3.69-3.21-8.98-3.21-11.55-.16-9.46-1.6-11.55-13.64-18.45-6.58-3.69-12.67-7.7-13.8-8.98-.96-1.28-7.54-5.29-14.44-8.82-12.99-6.74-20.69-13.15-20.69-17,0-4.33,4.49-7.22,9.79-6.1,6.26,1.44,29.84,14.44,35.45,19.73,4.33,4.01,9.3,4.01,9.3-.16,0-1.28-1.6-9.3-3.37-18.13-4.81-21.66-4.33-25.19,2.57-26.63,4.33-.8,8.5,1.76,10.11,6.74Zm-46.24,122.37c7.76,1.02,15.47,2.57,23.15,4.61,11.35,3.01,37.79,7.33,42.34,20.28.29.84-44.82,27.76-48.57,31.11-15.84,14.15-27.95,32.22-34.35,52.51-13.28,42.08-.59,87.41,25.64,121.7,22.6,29.55,26.74,57.96,20.08,94.22-6.87,37.39-24.94,74.78-18.72,113.55,2.05,12.75,9.96,20.94,13.73,32.3,5.95,17.96-7.31,51.15-11.79,69.8-3.73,15.53-6.77,36.74-15,50.5-10.5,17.57-23.88,13.79-27.83-4.11-2.97-13.43-1.09-27.36-1.91-40.95-1.89-31.19-2.26-62.78-7.62-93.58-6.21-35.64-24.78-69.75-55.26-90.18-33.95-22.77-80.12-16.19-113.48,4.71-38.68,24.23-49.27,61.49-48.15,105.19.84,33.62,5.22,66.93,9.06,100.3.6,5.21,1.19,10.53.06,15.65s-4.33,10.08-9.24,11.92c-9.71,3.62-23.6-12.58-29.19-18.89-21.92-24.71-30.52-57.3-33.23-89.46-3.03-35.94-7.91-71.62-18.36-106.25-5.5-18.22-12.41-36-20.82-53.08-6.3-12.8-17.53-26.88-20.68-40.97-4.49-20.06-18.93-38.64-24.9-58.76-16.14-54.35-7.59-117.28,36.26-156.47,54.41-48.64,132.53-44.88,195.74-17.06,4.15,1.76,7.98,3.99,8.5,4.96,2.29,4.27,39.3-26.91,42.8-29.7,23.33-18.6,52.48-30.36,82.08-34.07,13.35-1.67,26.57-1.49,39.67.22Zm259.67,25.72c54.38,16.05,81.32,84.82,86.03,136.27,2.1,22.99-6.15,43.47-14.41,64.4-7.24,18.34-14.88,36.64-19.56,55.84-4.98,20.41-4.45,40.93-5.92,61.73-.92,13-2.39,25.97-4.41,38.85-1.77,11.27-2.3,26.86-8.6,36.55l-2.89,4.17-2.73-3.69c-5.72-7.74-7.72-19.75-9.07-29.02-4.23-29.07-7.46-58.23-16.79-86.23-5.15-15.41-13.86-29.63-25.29-41.19-11.11-11.24-27.53-15.5-43.14-14.31-30.86,2.35-57.74,29.27-75.91,52.21-19.27,24.7-33.44,53.17-43.45,82.79-4.95,14.63-8.71,28.6-16.29,42.21-3.21,5.76-10.47,20.82-18.71,20.82-5.94,0-8.5-9.62-7.22-26.47,2.22-29.15,13.42-55.89,19.36-84.19,3.57-16.98,4.18-34.45,3.2-51.73-1.3-23.05-4.38-40.35-19.39-58.37-41.3-49.57-51.93-126.83,10.05-164.45,26.52-16.1,59.75-26.1,90.91-25.08,9.83.32,19.62,1.83,29.05,4.65,6.58,1.97,15.19,7.8,22.1,7.8,1.12,0,4.33-3.21,7.06-7.06,8.99-12.69,23.08-19.27,38.41-19.8,10.04-.35,19.21.82,27.6,3.3Zm366.06,14.18c48.23,11.99,90.27,43.84,107.76,95.27,11.29,33.19.82,70.38-15.07,100.38-22.41,42.3-29.54,83.72-29.3,130.77.25,49.84,6.56,101.91-9.27,150.16-5.24,15.96-20.35,60.88-43.22,56.99-26.32-4.48-23.31-62.06-22.83-81.12,1.08-42.84.95-90.09-27.11-125.34-27.25-34.25-81.05-31.39-110.55-.99-27.5,28.35-30.64,73.86-28.32,111.11,1.62,25.93,9.65,51.23,10.84,77.35.35,7.73,2.64,26.33-6.53,30.54-16.77,7.7-36.44-19.33-43.35-31.11-13.86-23.6-16.68-51.74-23.7-77.72-11.98-44.33-24.47-90.23-43.2-132.23-14.51-32.37-9.87-61.05,3.85-92.56,21.45-48.71,26.43-90.36,9.4-140.99-4.11-12.18-18.58-28.36-5.52-36.55,25.71-16.1,75.52,2.13,99.68,14.14.01,0,.03.01.04.02,9.65,4.84-7.54,15.16-10.14,19.08-10.13,15.21,7.63,20.97,20.3,12.38,7.33-4.97,10.45-14.18,10-22.78,5.29,2.84,12.21,2.33,17.03-1.25,21.28-15.84-17.1-14.68-2.22-31.26,8.33-9.29,26.17-16.49,37.92-20.36,33.38-11,69.95-12.27,103.53-3.92Zm-419.42,235.82c18.93,7.34,32.97,27.81,38.32,48.37,6.77,25.99,4.3,53.56,9.54,79.9,3.48,17.51,13.31,36.81,30.96,39.51,14.65,2.25,28.76-8.68,35.1-22.08,6.34-13.4,6.67-28.75,6.89-43.57,23.16,68.48,46.33,136.95,69.49,205.43,3.41,10.09,6.88,20.61,5.58,31.19-3.47,28.29-36.44,41.1-64,48.35-27.56,7.25-60.47,20.74-63.11,49.12,1.42-15.19-39.15-13.08-46.31-11.62-20.37,4.14-40,12.59-60.88,14.17-14.12,1.07-27.83-7.12-41.87-4.97-16.37,2.51-23.73,18.07-26.83,32.96-5.02,24.09,1.43,56.87,19.54,74.49,9.51,9.25,21.4,12.75,34.34,9.44,7.54-1.92,12.64-7.75,19.56-10.08,9.96-3.35,20.2-.1,30.05,2.16,31.75,7.3,67.1-4.31,88.36-28.99,13.53,6.83,31.45,3.46,41.58-7.81,10.13-11.27,11.58-29.44,3.35-42.17,7.18,11.12,5.1,24.82,23.51,26.75,17.32,1.81,32.23-17.04,26.98-33.52-2.62-8.2-9.21-14.82-11.07-23.22-1.86-8.4,5.9-19.48,13.53-15.49-9.49,13.65-1.9,35.62,13.99,40.5,15.89,4.88,34.5-9.05,34.3-25.68,29.83-10.7,62.49-24.62,75.05-53.73,6.28-14.56,5.75-38.53-12.92-43.65-8.91-2.45-19.2,1.58-24.08,9.43-2.78,4.47-8.87-11.83-8.57-14.06.75-5.66,7.46-14.1,9.32-20.27,5.33-17.61,6.79-36.26,5.92-54.57-2.29-48.22-34.37-138.03,30.75-161.38,32.09-11.51,59.18,7.32,67.58,38.07,8.56,31.35,11.92,63.9,14.15,96.23,2.17,31.36,5.25,65.29-3.34,96.65-16.05,58.58-73.64,103.77-121.18,137.11-131.34,92.13-301.86,123.56-455.59,74.05-80.04-25.78-153.98-71.49-212.71-131.69-4.48-4.59-49.06-51.63-46.24-54.83,26.88-30.46,20.54-76.7,14.18-116.83-5.37-33.86-10.07-80.59,16.42-107.56,25.8-26.27,61.39-42.05,97.11-24.6,29.37,14.35,48.22,44.87,56.22,76.57,8,31.69,6.64,64.91,5.13,97.56-.81,17.46-1.51,35.67,5.66,51.6,7.17,15.94,24.85,28.62,41.71,24.03,19.31-5.25,26.82-28.05,31.88-47.41,23.72-90.78,60.28-178.18,108.27-258.81,13.47-22.64,32.08-47.27,58.42-47.89,5.61-.13,10.94.89,15.94,2.83Zm232.63,335.49c.32.96,22.62,29.52,24.06,31.12,1.12,1.12,3.53,4.49,5.45,7.7,1.92,3.05,4.33,5.61,5.29,5.61,2.09,0,10.75-10.11,10.75-12.51,0-2.73,9.62-14.76,11.87-14.76,1.28,0,2.89,1.44,3.37,3.21,2.09,6.74-19.73,38.5-26.63,38.5-1.92,0-5.61-3.69-10.11-10.11-4.01-5.45-8.82-11.87-10.91-14.12-2.09-2.41-5.13-6.26-6.9-8.82-1.76-2.41-5.94-8.02-9.14-12.51-3.37-4.49-6.1-9.79-6.1-11.87,0-3.37.48-3.69,4.33-2.73,2.57.64,4.49,1.12,4.65,1.28Zm-17.49,39.14c11.07,12.51,18.61,20.21,27.59,28.39,10.11,8.98.8,13.64-10.27,4.97-3.05-2.25-6.42-4.01-7.7-4.01s-5.61,3.69-9.79,8.02c-6.26,6.58-7.38,8.98-6.74,12.51,2.89,15.24,2.89,17.65-.16,19.41-1.76.8-4.01.96-5.13.32-2.57-1.6-5.13-13.8-5.77-26.63-.16-5.29-.8-17.97-1.6-28.39-1.44-22.3-.64-26.95,4.65-26.95,2.89,0,6.9,3.37,14.92,12.35Zm-52.62,21.98c2.41,2.89.64,7.06-3.37,8.34-1.92.48-6.58,2.89-10.27,5.29-5.45,3.21-7.06,5.13-7.06,8.34,0,2.41,1.12,5.13,2.41,6.26s2.41,2.57,2.41,3.37c0,.64,3.37,8.34,7.38,17,4.17,8.66,7.86,18.45,8.34,21.82.8,5.77.48,6.26-3.05,5.61-3.05-.32-5.13-3.69-11.87-18.29-4.33-9.79-8.82-18.93-9.95-20.05-.96-1.28-2.41-4.33-2.89-6.74-1.6-6.42-4.65-6.9-13.15-2.73-5.45,2.73-8.02,3.21-9.95,2.09-4.49-2.73-4.01-7.7.96-9.95,4.81-2.41,13.31-6.74,31.76-16.52,12.35-6.42,15.56-7.22,18.29-3.85Zm-66.09,30.16c2.73,3.69,8.34,22.78,10.11,33.69.96,5.94,2.25,12.51,3.05,14.44,2.25,5.77,3.69,20.05,2.57,23.58-.48,1.92-1.92,3.37-3.05,3.37-3.05,0-25.83-14.76-34.33-22.46-18.29-16.36-22.94-17.32-19.89-3.69,6.26,28.23,7.54,35.61,6.74,38.82-.48,1.92-1.28,3.53-1.92,3.53-.8-.16-2.25-.16-3.53-.16-1.44,0-2.89-3.53-4.17-10.91-1.12-5.94-4.49-20.53-7.7-32.4-6.9-26.15-7.38-32.72-2.41-33.37,2.57-.32,7.06,2.73,16.04,11.07,15.72,14.6,36.9,30.32,41.07,30.32,2.41,0,2.89-.8,2.25-3.69-.48-1.92-2.09-7.86-3.37-13.15-1.28-5.29-3.53-13.96-4.97-19.25-4.17-15.72-4.49-16.68-3.37-19.25,1.12-2.89,4.81-3.21,6.9-.48Zm-72.67,16.68c1.44.48,2.57,2.57,2.57,4.65,0,4.33-2.73,5.61-12.35,5.61-8.02,0-19.89,3.05-21.66,5.45-1.28,1.92.32,18.93,2.09,20.85.64.8,7.54.16,15.88-1.44,12.51-2.41,14.92-2.57,16.2-.64.8,1.28,1.44,2.73,1.44,3.37,0,2.25-7.38,5.77-18.45,8.5-15.24,3.85-15.56,4.49-14.28,17.32,1.12,11.87,2.57,13.15,11.71,10.91,9.95-2.57,20.05-3.37,22.46-1.92,1.28.8,1.76,2.73,1.12,4.49-1.28,3.85-17.97,8.5-30,8.5-6.1,0-8.02-.64-9.95-3.69-3.37-5.29-5.61-18.93-7.54-46.36-2.25-32.08-2.41-29.68,3.69-30.64,2.73-.48,8.02-1.92,11.55-3.37,6.42-2.41,20.85-3.37,25.51-1.6Zm-90.96,11.23c19.57,10.75,29.36,20.69,32.72,33.37,3.85,14.44-2.89,33.37-14.44,40.1-7.54,4.33-22.78,4.49-31.44.16l-6.42-3.21.48-34.33c.32-18.93,1.28-36.09,2.09-38.18,1.12-3.05,2.09-3.53,5.77-2.73,2.57.64,7.54,2.73,11.23,4.81Zm194.59,3.05c0,.8-.8.48-1.6-.8s-1.6-3.21-1.6-4.01c0-.96.8-.48,1.6.8s1.6,3.05,1.6,4.01ZM554.63,64.76c-5.44.43-10.93,3.65-15.41,10.69-5.81,9.13-4.98,22.05-1.76,32,4.51,13.93,20.34,23.14,33.52,13.71,10.42-7.45,8.51-19.5,7.8-30.67-.92-14.65-12.44-26.65-24.15-25.73Zm8.39,16.13c4.89,5.65,5.19,17.27,3.42,24.2-.6,2.34-1.93,4.61-4.03,5.8-2.94,1.67-6.7.17-9.13-1.81-5.64-4.59-6.62-14.64-5.14-21.25,1.15-5.13,7.84-12.1,13.28-8.38.59.4,1.12.88,1.6,1.44Z"/>
    <path class="cls-5" d="m288.17,759.6s34.65-5.6,34.56,17.22,30.7,28.26,30.7,28.26l-25.27,58.34,18.04,18.69,40.68-10.42,33.7-14.53,50.11,24.94,13.47,15.64,25.57-3.6,11.48,12.47-22.96,75.25h-19.83l-25.57-23.18-19.3,12.22-44.35-26.58-9.91-21.94h-25.86l-10.66-15.76-31.83-4.73-19.3-41.07,7.64-28.17-21.73-9.32-17.85,11.81-17.11-16.06,45.57-59.48Z"/>
    <path class="cls-7" d="m286.65,750.97c-6.29,3.41-12.24,8.23-17.5,13.56-13.69,13.87-42.38,43.57-32.63,64.42,3.63,7.76,11.98,12.68,20.36,13.38,11.02.91,13.86-7.53,23.07-8.94,3.93-.6,8.11.79,10.89,3.64.87.89-6.76,14.08-7.64,16.37-2.7,7.03-3.83,14.18-1.91,21.62,3.61,14,19.32,25.98,31.31,32.56,5.61,3.08,13.97,3.11,18.83,5.99,6.59,3.91,8.9,11.78,14.34,16.78,5.65,5.18,14.47,4.36,21.21,2.15,7.28-2.39,9.73-5.7,11.17,4.39,1.4,9.83,5.32,18.31,15.23,21.83,8.14,2.89,13.27,3.86,19.41,9.36,12.19,10.93,23.66,15.58,37.91,5.25,0,0,5.01-3.63,5.01-3.63,7.53,9.69,13.65,22.21,26.12,26.39,25.69,8.62,33.54-23.33,38.3-41.07,4.98-18.53,22.9-60.8-1.2-73.57-6.88-3.64-15.3-3.35-22.4-.49-5.85,2.37-12.02,12.24-15.43,3.59-3.45-8.75-7.98-19.12-16.83-23.66-9.45-4.85-19.77,2.69-26.35-6.74-6.28-9.01-17.76-12.59-28.17-9.66-17.33,4.87-29.94,22.23-47.35,26.14-9.43,2.12-17.31-3.43-23.9-9.31.58.44,16.64-28.27,17.86-30.56,4.64-8.76,10.99-20.34,8-30.6s-24.61-13.09-24.71-20.78c-.09-7.07-8.11-18.61-12.83-23.44-12.74-13.02-27.17-12.01-40.16-4.96Zm23.8,15.26c7.25,6.22,11.92,17.1,12.26,28.84.35,12.61-2.94,17.27-14.68,21.07-8.81,2.76-9.33,2.76-16.06-.69-3.63-1.9-8.46-5.01-10.36-6.91-4.32-3.97-4.66-3.8-15.89,8.98-6.04,6.91-11.23,7.77-12.09,1.9-.52-4.14,8.64-16.93,21.24-29.36,4.66-4.84,11.23-12.26,14.51-16.41,10.54-13.82,12.61-14.51,21.07-7.43Zm35.75,41.97c.17,1.38-3.8,9.15-9.15,17.27-5.18,8.12-11.4,18.13-13.64,22.45s-5.7,9.33-7.77,11.05c-7.6,6.91-3.45,12.78,15.89,21.93,7.08,3.45,8.12,4.66,7.77,8.46-.69,6.39-6.74,6.39-18.31-.17-12.43-7.25-22.8-16.75-22.8-21.07,0-1.9,4.14-9.33,9.15-16.58,5.18-7.25,11.4-17.1,14.16-21.76,11.23-20.03,15.37-25.04,19.86-24.7,2.42.35,4.49,1.73,4.84,3.11Zm73.92,57.86c1.52,4.06-1.1,11.15-1.89,15.1-2.92,14.59-7.96,29.13-10.15,43.8-.51,3.4.18,7.06-.78,10.35-.74,2.54-2.85,4.88-5.49,5.03-7.75.43-4.3-23.9-4.28-28.52,0-.72-7.86-3.69-9.19-4.32-3.32-1.57-9.46-5.05-13.35-4.33-4.18.77-9.3,7.1-13.14,9.45-1.5.92-3.22,1.81-4.94,1.46-2.52-.51-3.83-3.55-3.37-6.08,1.05-5.8,7.68-10.6,11.9-14.1,9.49-7.88,20.56-14.39,31.21-20.6,3.57-2.08,20.4-15.46,23.48-7.25Zm36.44,12.61c1.73,1.04,5.53,12.09,13.64,39.2,3.28,11.05,12.6,33.83,15.02,36.78,4.95,6.03,8.13-11.88,8.66-14.46,1.53-7.4,3.05-14.79,4.58-22.19,1-4.85,1.33-12.25,4.37-16.39,1.36-1.85,3.84-3.1,6-2.3,3.2,1.18,3.56,5.51,3.22,8.91-1.65,16.44-8.11,31.74-12.34,47.58-1.87,7.01-8.09,32.26-17.94,17-7.11-10.31-11.65-22.17-15.66-33.95-1.98-5.83-3.81-11.71-5.71-17.56-.45-1.39-4.29-15.69-7.29-11.7-2.43,3.22-3.13,9.82-4.21,13.61-1.48,5.19-6.71,41.28-17.36,35.04-1.55-.91-2.3-2.8-2.31-4.6-.06-7.49,3.43-14.36,5.52-21.4,3.55-11.98,6.76-23.75,9.37-35.95,2.94-16.23,6.56-21.42,12.43-17.62Z"/>
    <path class="cls-7" d="m292.23,785.85c-4.61,4.74-8.26,9.48-8.26,10.13,0,.82,2.11,3.43,4.8,5.88,5.76,5.39,15.57,5.72,21.71.98,4.61-3.76,5.38-8.33,2.11-16.01-1.54-4.09-9.22-10.62-11.72-9.97-.38,0-4.23,4.09-8.65,8.99Z"/>
    <path class="cls-7" d="m396.51,885.68c-8.86,7.12-9.63,7.89-9.63,10.59,0,2.31,12.71,8.09,14.44,6.35.39-.19,1.93-4.24,3.47-8.66,1.93-5.58,2.12-8.66.77-10.01-2.7-2.7-3.47-2.7-9.05,1.73Z"/>
    <path class="cls-7" d="m857.92,863.78c1.86,11.21,2.15,12.26,4.5,13.58,2.01,1.13,13.28-7.1,12.62-9.46.02-.43-2.74-3.76-5.84-7.27-3.92-4.42-6.51-6.1-8.34-5.59-3.67,1.02-4.05,1.69-2.93,8.73Z"/>
    <path class="cls-7" d="m271.83,278.43c-1.01.32-2,.68-2.97,1.07-5.51,2.19-12.96,5.75-15.83,11.28-3.9,7.49,11.12,16.2,17.04,15.24,7.63-1.24,16.55-4.23,23.48-7.7.88-.44.66-10.06.75-11.38.19-2.84.48-5.73.48-8.58-.03-.72-7.54-1.43-8.32-1.53-4.96-.64-9.88.07-14.63,1.6Z"/>
    <path class="cls-7" d="m325.16,288.41c-1.21,2.02-1.89,4.66-2.28,6.54-.67,3.24-2.98,13.14.56,15.22,2.76,1.62,6.13,2.09,9.07,3.34,4.15,1.77,8.15,6,12.5,6.82,4.85.91,11.25-5.77,14.3-8.82.73-.74,1.46-1.53,1.8-2.51,1.51-4.49-6.19-10.58-9.02-13.06-6.34-5.56-13.18-7.62-20.95-10.21-2.79-.93-4.69.52-5.98,2.67Z"/>
    <path class="cls-7" d="m251.23,328.75c-7.14,4.65-11.63,12.89-13.22,21.12s-.76,18.55,6.77,23.46c8.75,5.7,19.62.25,25.77-6.76,7.67-8.73,11.26-24.5,3.79-34.42-2.76-3.66-6.86-5.91-11.3-6.85-4.63-.98-8.12.96-11.82,3.45Z"/>
    <path class="cls-7" d="m305.41,330.21c-13.66,5.25-20.97,21.97-18.54,35.8,1.68,9.61,13.28,19.31,22.85,14.47,5.09-2.58,9.6-7.53,12.79-12.19,7.11-10.38,7.57-32.39-5.96-38.11-3.77-1.6-7.59-1.33-11.14.03Z"/>
    <path class="cls-7" d="m186.98,371.23c-2.52,1.44-13.86,36.35-16.92,51.47-10.8,55.79-7.56,86.39,10.98,103.85,14.75,13.89,34,13.1,51.59,5.37,25.22-11.08,47.7-27.64,67.68-46.47,10.01-9.43,19.44-19.48,28.41-29.91,2.93-3.41,8.73-8.42,9.22-13.26s-4.08-7.03-7.52-9.13c-.71-.43-1.43-.85-2.15-1.27,0,0-6.48-3.78-6.48-3.78-20.4,20.04-40.1,41.34-62.87,58.75-13.31,10.17-30.54,24.04-47.81,25.39-16.83,1.32-20.86-19.07-21.66-31.95-1.28-20.53,3.12-43.22,8.47-62.96,2.35-8.67,5.76-17,8.25-25.6,1.3-4.51,3.98-12.6-.28-16.36-3.06-2.7-16.56-5.58-18.9-4.14Z"/>
    <path class="cls-7" d="m593.41,271.44c-.64.48-1.12,4.64-1.12,8.96,0,8.96,2.72,12.15,10.23,12.31,2.56,0,7.2.8,10.07,1.92,5.12,1.92,5.6,1.6,11.67-4.32,3.52-3.36,6.4-7.2,6.4-8.32s-3.84-4.16-8.32-6.88c-6.88-3.84-10.39-4.8-18.23-4.8-5.28,0-10.23.48-10.71,1.12Z"/>
    <path class="cls-7" d="m645.46,286.42c-4.64,2.56-3.2,20.63,1.6,20.63,1.44,0,6.56,1.92,11.19,4.32l8.48,4.32,7.2-7.36,7.36-7.2-4.8-4.48c-7.68-7.2-25.75-13.11-31.02-10.23Z"/>
    <path class="cls-7" d="m569.1,298.88c-5.69,4.68-8.69,12.93-12.14,19.04-15.77,27.92-33.68,67.11-14.27,97.67,7.65,12.05,20.3,20.78,34.31,23.57,8.02,1.59,16.37,1.18,24.16-1.31,16.27-5.2,29.89-16.74,41.91-28.47,2.47-2.41,4.89-4.86,7.28-7.34,12.33-12.74,22.76-27.17,32.44-41.99,4.85-7.43,9.53-14.97,14.21-22.51,2.33-3.76,4.65-7.53,7.02-11.26,1.96-3.08,5.16-6.5,3.74-10.44-1.44-4-14.39-10.87-17.27-9.12-1.44.64-10.71,9.12-20.47,18.55-10.64,10.29-21.36,20.56-33.02,29.72-5.93,4.66-12.09,9.04-18.57,12.89-7.89,4.69-20.85,14.24-30.27,8.86-9.68-5.53-6.67-20.68-5.62-29.77,1.42-12.34,4.6-24.39,8.17-36.27,1.03-3.26,1.43-6.48-.61-9.49-2.74-4.03-11.77-6.7-16.29-5.07-1.76.63-3.31,1.57-4.7,2.71Zm1.85,94.05c13.38,10.37,31.54,7.31,45.97,1.22,1.2-.51,12-4.89,12-4.43.05,2.68-6.08,7.84-7.86,9.61-8.03,7.98-17.63,15.5-28.96,17.87-5.32,1.11-11.49,1.46-16.22-1.43-5.56-3.4-11.98-8.61-14.86-14.61-3.35-6.99-3.23-17.03-2.16-24.5-.44,3.08,3.82,6.91,5.4,9.18,1.97,2.83,4.21,5.18,6.68,7.09Z"/>
    <path class="cls-7" d="m1026.02,320.32c-.51.16-1,.32-1.47.47-11.18,3.65-41.75,15.01-41.75,29.16,0,8.83,10.98,17.34,16.99,22.37,8.56,7.15,34.99,30.24,46.57,19.87,6.07-5.44,8.33-18.21,10.3-25.66,3.02-11.4,6.87-25.63,5.28-37.5-2.25-16.79-24.29-12.31-35.93-8.71Zm12.14,49.31c3.08,3.69,1.23,9.23-2.67,9.23-4.1,0-8.2-5.54-6.77-9.23,1.44-3.9,6.15-3.9,9.43,0Z"/>
    <path class="cls-7" d="m930.95,358.27c-10.76,6.94-20.8,21.2-25.51,28.68-7.08,11.26-23.98,42.06-1.99,47.96,8.95,2.4,20.17.45,29.21-.37,18.5-1.68,50.94-4.75,43.16-31-4.1-12.92-11.28-27.47-20.3-41-7.11-10.67-16.07-9.76-24.58-4.27Zm30.32,52.04c0,4.51-6.36,6.77-9.64,3.49-3.49-3.49-.21-9.02,4.92-8.2,3.08.41,4.72,2.05,4.72,4.72Z"/>
  </g>
  <g id="Capa_3" data-name="Capa 3">
    <path class="cls-1" d="m1071.54,401.13c-7.24,6.75-14.44,13.15-24.61,14.31-10.16,1.17-17.59,7.61-22.51,16.15-5.33,9.26-15.43,10.86-24.89,12.72-8.54,1.68-14.03,7.53-18.74,14.4-6.04,8.82-14.68,14.68-25.32,16.22-3.74.53-6.78,1.78-6.78,2.5,0,1.54,5.3,3.78,6.36,4.35,3.72,2.02,7.57,4.09,11.58,5.4,10.44,3.42,20.64,7.55,31.46,9.87,6.13,1.32,12.28,2.03,18.44,2.93s11.9.69,17.74-.39c15.21-2.81,29.8-11.7,36.08-26.24,2.95-6.83,4.37-14.3,5.72-21.58,1.77-9.59,3.16-19.25,4.55-28.91,2.14-15.69,2.32-26.74.18-27.99-.71-.53-4.99,2.32-9.27,6.24Z"/>
  </g>
  <g id="Capa_2" data-name="Capa 2">
    <path class="cls-3" d="m674.88,44.69c-.8.16-4.78,1.27-8.75,2.55-10.82,3.18-19.58,9.71-24.2,18.46-11.14,21.01-5.41,37.09,24.99,69.72,19.26,20.85,18.78,19.74,18.78,34.54,0,9.39.48,12.89,2.23,13.53,2.07.8,21.49-8.12,33.9-15.6,28.81-17.35,38.68-24.35,47.75-33.27,11.94-11.78,19.26-24.83,20.37-36.61.8-8.6-2.23-23.4-5.41-26.74-1.27-1.11-2.71-3.02-3.34-4.14-2.39-3.66-12.42-10.19-19.74-12.58-10.82-3.66-23.24-1.91-34.38,4.62-4.78,3.02-10.03,5.41-11.46,5.41-1.59,0-4.78-2.23-7.48-4.93-5.41-5.73-15.44-11.78-22.13-13.21-2.55-.64-5.89-1.43-7.16-1.75s-3.02-.32-3.98,0Z"/>
    <path class="cls-7" d="m580.2,935.13c-2.51.67-3.01,2.84-3.35,12.71-.67,26.76-.33,41.15,1,42.48.67.67,5.52,1.34,10.7,1.34,11.54,0,17.39-3.68,21.07-13.55,4.52-11.37.67-23.08-10.54-32.62-8.7-7.53-15.39-11.04-18.9-10.37Z"/>
  </g>
</svg>